<svg width="42" height="42" viewBox="0 0 42 42" fill="none" xmlns="http://www.w3.org/2000/svg">
<rect width="42" height="42" rx="21" fill="#0C0D0D" style="fill:#0C0D0D;fill:color(display-p3 0.0471 0.0510 0.0510);fill-opacity:1;"/>
<path opacity="0.4" d="M21 30C26.5228 30 31 25.5228 31 20C31 14.4772 26.5228 10 21 10C15.4772 10 11 14.4772 11 20C11 25.5228 15.4772 30 21 30Z" fill="white" style="fill:white;fill-opacity:1;"/>
<path d="M22.0604 19.9999L24.3604 17.6999C24.6504 17.4099 24.6504 16.9299 24.3604 16.6399C24.0704 16.3499 23.5904 16.3499 23.3004 16.6399L21.0004 18.9399L18.7004 16.6399C18.4104 16.3499 17.9304 16.3499 17.6404 16.6399C17.3504 16.9299 17.3504 17.4099 17.6404 17.6999L19.9404 19.9999L17.6404 22.2999C17.3504 22.5899 17.3504 23.0699 17.6404 23.3599C17.7904 23.5099 17.9804 23.5799 18.1704 23.5799C18.3604 23.5799 18.5504 23.5099 18.7004 23.3599L21.0004 21.0599L23.3004 23.3599C23.4504 23.5099 23.6404 23.5799 23.8304 23.5799C24.0204 23.5799 24.2104 23.5099 24.3604 23.3599C24.6504 23.0699 24.6504 22.5899 24.3604 22.2999L22.0604 19.9999Z" fill="white" style="fill:white;fill-opacity:1;"/>
</svg>
