<svg width="97" height="14" viewBox="0 0 97 14" fill="none" xmlns="http://www.w3.org/2000/svg">
<path d="M0.184 13V1.672H5.144C5.66667 1.672 6.14133 1.72533 6.568 1.832C7.00533 1.928 7.384 2.088 7.704 2.312C8.024 2.536 8.26933 2.83467 8.44 3.208C8.62133 3.58133 8.712 4.056 8.712 4.632C8.712 5.10133 8.60533 5.53867 8.392 5.944C8.17867 6.34933 7.864 6.65867 7.448 6.872C8.00267 7.05333 8.44 7.368 8.76 7.816C9.08 8.25333 9.24 8.83467 9.24 9.56C9.24 10.2107 9.11733 10.76 8.872 11.208C8.62667 11.6453 8.29067 11.9973 7.864 12.264C7.43733 12.5307 6.94133 12.7227 6.376 12.84C5.81067 12.9467 5.208 13 4.568 13H0.184ZM2.472 10.888H4.84C5.128 10.888 5.39467 10.8667 5.64 10.824C5.896 10.7813 6.12 10.712 6.312 10.616C6.504 10.5093 6.65333 10.3653 6.76 10.184C6.87733 10.0027 6.936 9.77867 6.936 9.512C6.936 9.26667 6.888 9.064 6.792 8.904C6.70667 8.73333 6.57867 8.59467 6.408 8.488C6.248 8.38133 6.056 8.30667 5.832 8.264C5.61867 8.22133 5.37867 8.2 5.112 8.2H2.472V10.888ZM2.472 6.296H4.568C4.856 6.296 5.11733 6.26933 5.352 6.216C5.58667 6.16267 5.784 6.07733 5.944 5.96C6.104 5.84267 6.22667 5.69867 6.312 5.528C6.39733 5.34667 6.44 5.13867 6.44 4.904C6.45067 4.584 6.38133 4.34933 6.232 4.2C6.08267 4.04 5.88 3.93333 5.624 3.88C5.368 3.816 5.08 3.784 4.76 3.784H2.472V6.296ZM14.1641 13.112C13.3108 13.112 12.5641 12.9413 11.9241 12.6C11.2841 12.248 10.7881 11.752 10.4361 11.112C10.0841 10.4613 9.90813 9.69333 9.90813 8.808C9.90813 7.90133 10.0841 7.12267 10.4361 6.472C10.7988 5.81067 11.3001 5.304 11.9401 4.952C12.5801 4.6 13.3161 4.424 14.1481 4.424C15.0015 4.424 15.7428 4.60533 16.3721 4.968C17.0015 5.33067 17.4921 5.83733 17.8441 6.488C18.1961 7.13867 18.3721 7.91733 18.3721 8.824C18.3721 9.70933 18.1961 10.4773 17.8441 11.128C17.5028 11.768 17.0175 12.2587 16.3881 12.6C15.7695 12.9413 15.0281 13.112 14.1641 13.112ZM14.1321 11.064C14.6228 11.064 15.0175 10.9573 15.3161 10.744C15.6148 10.5307 15.8281 10.2533 15.9561 9.912C16.0948 9.56 16.1641 9.192 16.1641 8.808C16.1641 8.424 16.0948 8.056 15.9561 7.704C15.8281 7.352 15.6148 7.064 15.3161 6.84C15.0281 6.60533 14.6335 6.488 14.1321 6.488C13.6521 6.488 13.2628 6.60533 12.9641 6.84C12.6655 7.064 12.4468 7.352 12.3081 7.704C12.1801 8.056 12.1161 8.424 12.1161 8.808C12.1161 9.20267 12.1801 9.57067 12.3081 9.912C12.4468 10.2533 12.6655 10.5307 12.9641 10.744C13.2628 10.9573 13.6521 11.064 14.1321 11.064ZM23.2623 13.112C22.4089 13.112 21.6623 12.9413 21.0223 12.6C20.3823 12.248 19.8863 11.752 19.5343 11.112C19.1823 10.4613 19.0063 9.69333 19.0063 8.808C19.0063 7.90133 19.1823 7.12267 19.5343 6.472C19.8969 5.81067 20.3983 5.304 21.0383 4.952C21.6783 4.6 22.4143 4.424 23.2463 4.424C24.0996 4.424 24.8409 4.60533 25.4703 4.968C26.0996 5.33067 26.5903 5.83733 26.9423 6.488C27.2943 7.13867 27.4703 7.91733 27.4703 8.824C27.4703 9.70933 27.2943 10.4773 26.9423 11.128C26.6009 11.768 26.1156 12.2587 25.4863 12.6C24.8676 12.9413 24.1263 13.112 23.2623 13.112ZM23.2303 11.064C23.7209 11.064 24.1156 10.9573 24.4143 10.744C24.7129 10.5307 24.9263 10.2533 25.0543 9.912C25.1929 9.56 25.2623 9.192 25.2623 8.808C25.2623 8.424 25.1929 8.056 25.0543 7.704C24.9263 7.352 24.7129 7.064 24.4143 6.84C24.1263 6.60533 23.7316 6.488 23.2303 6.488C22.7503 6.488 22.3609 6.60533 22.0623 6.84C21.7636 7.064 21.5449 7.352 21.4063 7.704C21.2783 8.056 21.2143 8.424 21.2143 8.808C21.2143 9.20267 21.2783 9.57067 21.4063 9.912C21.5449 10.2533 21.7636 10.5307 22.0623 10.744C22.3609 10.9573 22.7503 11.064 23.2303 11.064ZM28.4244 13V4.568H30.4404L30.6324 5.512C30.8457 5.21333 31.0804 4.98933 31.3364 4.84C31.603 4.68 31.8697 4.57333 32.1364 4.52C32.403 4.46667 32.6484 4.44 32.8724 4.44C33.3737 4.44 33.8164 4.536 34.2004 4.728C34.5844 4.92 34.8937 5.22933 35.1284 5.656C35.3524 5.34667 35.5977 5.10667 35.8644 4.936C36.131 4.75467 36.4137 4.62667 36.7124 4.552C37.011 4.47733 37.315 4.44 37.6244 4.44C38.275 4.44 38.7977 4.57867 39.1924 4.856C39.5977 5.12267 39.891 5.496 40.0724 5.976C40.2644 6.456 40.3604 7.016 40.3604 7.656V13H38.1204V8.248C38.1204 8.056 38.1097 7.85867 38.0884 7.656C38.067 7.45333 38.0137 7.26133 37.9284 7.08C37.8537 6.89867 37.7364 6.74933 37.5764 6.632C37.427 6.51467 37.2137 6.456 36.9364 6.456C36.6697 6.456 36.4457 6.51467 36.2644 6.632C36.083 6.74933 35.939 6.90933 35.8324 7.112C35.7257 7.304 35.6457 7.51733 35.5924 7.752C35.5497 7.976 35.5284 8.20533 35.5284 8.44V13H33.2884V8.232C33.2884 8.05067 33.2777 7.85867 33.2564 7.656C33.235 7.45333 33.187 7.26133 33.1124 7.08C33.0377 6.89867 32.915 6.74933 32.7444 6.632C32.5844 6.51467 32.3604 6.456 32.0724 6.456C31.6777 6.456 31.3737 6.57333 31.1604 6.808C30.9577 7.032 30.8244 7.304 30.7604 7.624C30.6964 7.93333 30.6644 8.22133 30.6644 8.488V13H28.4244ZM44.8654 13.112C44.4707 13.112 44.0654 13.0693 43.6494 12.984C43.2334 12.8987 42.8494 12.7547 42.4974 12.552C42.1454 12.3387 41.8467 12.056 41.6014 11.704C41.356 11.3413 41.196 10.8933 41.1214 10.36H43.3934C43.4574 10.552 43.5694 10.7173 43.7294 10.856C43.9 10.9947 44.092 11.096 44.3054 11.16C44.5294 11.224 44.7534 11.256 44.9774 11.256C45.1267 11.256 45.276 11.2453 45.4254 11.224C45.5747 11.2027 45.7134 11.16 45.8414 11.096C45.9694 11.032 46.0707 10.952 46.1454 10.856C46.22 10.7493 46.2574 10.616 46.2574 10.456C46.2574 10.2853 46.204 10.152 46.0974 10.056C45.9907 9.96 45.8414 9.88533 45.6494 9.832C45.4574 9.768 45.2387 9.70933 44.9934 9.656C44.556 9.56 44.0867 9.45333 43.5854 9.336C43.084 9.21867 42.652 9.048 42.2894 8.824C42.14 8.71733 42.0067 8.6 41.8894 8.472C41.772 8.344 41.676 8.2 41.6014 8.04C41.5267 7.88 41.468 7.71467 41.4254 7.544C41.3827 7.36267 41.3614 7.17067 41.3614 6.968C41.3614 6.50933 41.4574 6.12 41.6494 5.8C41.852 5.46933 42.1187 5.20267 42.4494 5C42.78 4.79733 43.148 4.65333 43.5534 4.568C43.9587 4.472 44.3747 4.424 44.8014 4.424C45.3774 4.424 45.9107 4.52 46.4014 4.712C46.892 4.89333 47.2974 5.18133 47.6174 5.576C47.9374 5.96 48.1347 6.46133 48.2094 7.08H46.0654C46.0227 6.84533 45.8787 6.65867 45.6334 6.52C45.388 6.37067 45.084 6.296 44.7214 6.296C44.5934 6.296 44.4547 6.30667 44.3054 6.328C44.1667 6.34933 44.0387 6.38667 43.9214 6.44C43.804 6.49333 43.708 6.568 43.6334 6.664C43.5587 6.74933 43.5214 6.86667 43.5214 7.016C43.5214 7.13333 43.5534 7.24 43.6174 7.336C43.692 7.432 43.7934 7.512 43.9214 7.576C44.06 7.64 44.2254 7.69867 44.4174 7.752C44.78 7.83733 45.1427 7.91733 45.5054 7.992C45.8787 8.056 46.2094 8.12533 46.4974 8.2C46.8494 8.27467 47.1694 8.39733 47.4574 8.568C47.756 8.73867 47.996 8.97333 48.1774 9.272C48.3694 9.56 48.4654 9.93867 48.4654 10.408C48.4654 10.9413 48.3587 11.384 48.1454 11.736C47.932 12.0773 47.644 12.3493 47.2814 12.552C46.9294 12.7547 46.54 12.8987 46.1134 12.984C45.6974 13.0693 45.2814 13.112 44.8654 13.112ZM53.2247 13.112C52.3607 13.112 51.6194 12.936 51.0007 12.584C50.3927 12.232 49.9287 11.736 49.6087 11.096C49.2887 10.4453 49.1287 9.68267 49.1287 8.808C49.1287 7.92267 49.2941 7.15467 49.6247 6.504C49.9554 5.84267 50.4301 5.33067 51.0487 4.968C51.6781 4.60533 52.4354 4.424 53.3207 4.424C54.0034 4.424 54.6114 4.54667 55.1447 4.792C55.6781 5.03733 56.1047 5.38933 56.4247 5.848C56.7554 6.30667 56.9474 6.872 57.0007 7.544H54.8087C54.7127 7.17067 54.5261 6.89867 54.2487 6.728C53.9821 6.55733 53.6621 6.472 53.2887 6.472C52.8087 6.472 52.4247 6.58933 52.1367 6.824C51.8594 7.05867 51.6567 7.35733 51.5287 7.72C51.4114 8.08267 51.3527 8.44533 51.3527 8.808C51.3527 9.20267 51.4167 9.576 51.5447 9.928C51.6727 10.2693 51.8754 10.552 52.1527 10.776C52.4407 10.9893 52.8141 11.096 53.2727 11.096C53.6567 11.096 53.9927 11.0107 54.2807 10.84C54.5687 10.6587 54.7554 10.3813 54.8407 10.008H57.0807C57.0274 10.7013 56.8194 11.2773 56.4567 11.736C56.0941 12.1947 55.6301 12.5413 55.0647 12.776C54.5101 13 53.8967 13.112 53.2247 13.112ZM61.8891 13.112C61.0358 13.112 60.2891 12.9413 59.6491 12.6C59.0091 12.248 58.5131 11.752 58.1611 11.112C57.8091 10.4613 57.6331 9.69333 57.6331 8.808C57.6331 7.90133 57.8091 7.12267 58.1611 6.472C58.5238 5.81067 59.0251 5.304 59.6651 4.952C60.3051 4.6 61.0411 4.424 61.8731 4.424C62.7265 4.424 63.4678 4.60533 64.0971 4.968C64.7265 5.33067 65.2171 5.83733 65.5691 6.488C65.9211 7.13867 66.0971 7.91733 66.0971 8.824C66.0971 9.70933 65.9211 10.4773 65.5691 11.128C65.2278 11.768 64.7425 12.2587 64.1131 12.6C63.4945 12.9413 62.7531 13.112 61.8891 13.112ZM61.8571 11.064C62.3478 11.064 62.7425 10.9573 63.0411 10.744C63.3398 10.5307 63.5531 10.2533 63.6811 9.912C63.8198 9.56 63.8891 9.192 63.8891 8.808C63.8891 8.424 63.8198 8.056 63.6811 7.704C63.5531 7.352 63.3398 7.064 63.0411 6.84C62.7531 6.60533 62.3585 6.488 61.8571 6.488C61.3771 6.488 60.9878 6.60533 60.6891 6.84C60.3905 7.064 60.1718 7.352 60.0331 7.704C59.9051 8.056 59.8411 8.424 59.8411 8.808C59.8411 9.20267 59.9051 9.57067 60.0331 9.912C60.1718 10.2533 60.3905 10.5307 60.6891 10.744C60.9878 10.9573 61.3771 11.064 61.8571 11.064ZM67.0512 13V4.568H69.0672L69.2112 5.576C69.4246 5.256 69.6646 5.016 69.9312 4.856C70.1979 4.68533 70.4752 4.57333 70.7632 4.52C71.0512 4.456 71.3446 4.424 71.6432 4.424C71.7819 4.424 71.9099 4.42933 72.0272 4.44C72.1446 4.44 72.2299 4.44 72.2832 4.44V6.6H71.7552C71.2539 6.6 70.8166 6.68533 70.4432 6.856C70.0699 7.02667 69.7819 7.29333 69.5792 7.656C69.3872 8.01867 69.2912 8.48267 69.2912 9.048V13H67.0512ZM76.5523 13.112C75.6669 13.112 74.9149 12.936 74.2963 12.584C73.6776 12.232 73.2029 11.736 72.8723 11.096C72.5416 10.4453 72.3763 9.688 72.3763 8.824C72.3763 7.94933 72.5469 7.18667 72.8883 6.536C73.2296 5.87467 73.7096 5.35733 74.3283 4.984C74.9576 4.61067 75.6989 4.424 76.5523 4.424C77.1923 4.424 77.7523 4.53067 78.2323 4.744C78.7229 4.95733 79.1336 5.256 79.4643 5.64C79.8056 6.024 80.0563 6.472 80.2163 6.984C80.3869 7.48533 80.4669 8.02933 80.4563 8.616C80.4563 8.76533 80.4509 8.90933 80.4403 9.048C80.4296 9.18667 80.4083 9.32533 80.3763 9.464H74.6003C74.6323 9.784 74.7229 10.0773 74.8723 10.344C75.0216 10.6107 75.2296 10.824 75.4963 10.984C75.7736 11.1333 76.1149 11.208 76.5203 11.208C76.7869 11.208 77.0323 11.1813 77.2563 11.128C77.4803 11.064 77.6723 10.968 77.8323 10.84C77.9923 10.712 78.1043 10.5627 78.1683 10.392H80.3763C80.2376 11.0213 79.9763 11.5387 79.5923 11.944C79.2189 12.3493 78.7656 12.648 78.2323 12.84C77.6989 13.0213 77.1389 13.112 76.5523 13.112ZM74.6483 7.896H78.3123C78.3016 7.608 78.2269 7.34133 78.0883 7.096C77.9603 6.84 77.7629 6.63733 77.4963 6.488C77.2403 6.328 76.9096 6.248 76.5043 6.248C76.0989 6.248 75.7576 6.328 75.4803 6.488C75.2136 6.648 75.0109 6.856 74.8723 7.112C74.7443 7.35733 74.6696 7.61867 74.6483 7.896Z" fill="black" style="fill:black;fill-opacity:1;"/>
<path d="M82.7954 13.208C82.4114 13.208 82.086 13.0907 81.8194 12.856C81.5527 12.6213 81.4194 12.2853 81.4194 11.848C81.4194 11.4 81.5527 11.048 81.8194 10.792C82.0967 10.536 82.422 10.408 82.7954 10.408C83.1687 10.408 83.4887 10.536 83.7554 10.792C84.022 11.0373 84.1554 11.384 84.1554 11.832C84.1554 12.28 84.022 12.6213 83.7554 12.856C83.4887 13.0907 83.1687 13.208 82.7954 13.208ZM88.1114 13.112C87.7274 13.112 87.354 13.064 86.9914 12.968C86.6394 12.8613 86.3247 12.7013 86.0474 12.488C85.77 12.2747 85.5514 12.008 85.3914 11.688C85.2314 11.368 85.1514 10.9947 85.1514 10.568C85.1514 9.992 85.2687 9.53333 85.5034 9.192C85.738 8.84 86.0527 8.57333 86.4474 8.392C86.842 8.21067 87.2954 8.088 87.8074 8.024C88.33 7.96 88.8687 7.928 89.4234 7.928H90.6394C90.6394 7.61867 90.5807 7.34667 90.4634 7.112C90.3567 6.86667 90.1914 6.68 89.9674 6.552C89.7434 6.41333 89.4554 6.344 89.1034 6.344C88.8794 6.344 88.6607 6.376 88.4474 6.44C88.2447 6.49333 88.074 6.57333 87.9354 6.68C87.7967 6.78667 87.706 6.92533 87.6634 7.096H85.3914C85.4554 6.62667 85.6047 6.22667 85.8394 5.896C86.074 5.55467 86.3674 5.27733 86.7194 5.064C87.0714 4.85067 87.4554 4.696 87.8714 4.6C88.298 4.49333 88.7354 4.44 89.1834 4.44C90.41 4.44 91.3167 4.792 91.9034 5.496C92.49 6.18933 92.7834 7.176 92.7834 8.456V13H90.7674L90.7354 11.912C90.4687 12.2853 90.1647 12.5573 89.8234 12.728C89.4927 12.8987 89.1727 13.0053 88.8634 13.048C88.554 13.0907 88.3034 13.112 88.1114 13.112ZM88.6234 11.336C88.9967 11.336 89.338 11.2613 89.6474 11.112C89.9567 10.9627 90.202 10.76 90.3834 10.504C90.5647 10.248 90.6554 9.96 90.6554 9.64V9.432H89.1194C88.8954 9.432 88.6767 9.44267 88.4634 9.464C88.2607 9.48533 88.074 9.528 87.9034 9.592C87.7434 9.64533 87.6154 9.736 87.5194 9.864C87.4234 9.992 87.3754 10.1627 87.3754 10.376C87.3754 10.5893 87.4287 10.7707 87.5354 10.92C87.6527 11.0587 87.8074 11.1653 87.9994 11.24C88.1914 11.304 88.3994 11.336 88.6234 11.336ZM94.0531 13V4.568H96.2931V13H94.0531ZM95.1731 3.72C94.7571 3.72 94.4211 3.59733 94.1651 3.352C93.9091 3.096 93.7811 2.77067 93.7811 2.376C93.7811 1.96 93.9145 1.624 94.1811 1.368C94.4478 1.112 94.7838 0.983999 95.1891 0.983999C95.5625 0.983999 95.8825 1.112 96.1491 1.368C96.4265 1.61333 96.5651 1.944 96.5651 2.36C96.5651 2.76533 96.4318 3.096 96.1651 3.352C95.9091 3.59733 95.5785 3.72 95.1731 3.72Z" fill="#2BBB82" style="fill:#2BBB82;fill:color(display-p3 0.1672 0.7328 0.5083);fill-opacity:1;"/>
</svg>
