<svg width="160" height="160" viewBox="0 0 160 160" fill="none" xmlns="http://www.w3.org/2000/svg">
<rect x="0.5" y="0.5" width="159" height="159" rx="79.5" fill="#F2F3F2" style="fill:#F2F3F2;fill:color(display-p3 0.9490 0.9529 0.9490);fill-opacity:1;"/>
<rect x="0.5" y="0.5" width="159" height="159" rx="79.5" stroke="#F2F3F2" style="stroke:#F2F3F2;stroke:color(display-p3 0.9490 0.9529 0.9490);stroke-opacity:1;"/>
<path d="M90.417 74.7915H65.417C63.7087 74.7915 62.292 73.3748 62.292 71.6665C62.292 69.9582 63.7087 68.5415 65.417 68.5415H90.417C92.1253 68.5415 93.542 69.9582 93.542 71.6665C93.542 73.3748 92.1253 74.7915 90.417 74.7915Z" fill="#8A8F8C" style="fill:#8A8F8C;fill:color(display-p3 0.5412 0.5608 0.5490);fill-opacity:1;"/>
<path d="M77.917 87.2915H65.417C63.7087 87.2915 62.292 85.8748 62.292 84.1665C62.292 82.4582 63.7087 81.0415 65.417 81.0415H77.917C79.6253 81.0415 81.042 82.4582 81.042 84.1665C81.042 85.8748 79.6253 87.2915 77.917 87.2915Z" fill="#8A8F8C" style="fill:#8A8F8C;fill:color(display-p3 0.5412 0.5608 0.5490);fill-opacity:1;"/>
<path opacity="0.4" d="M77.9163 117.5C99.7776 117.5 117.5 99.7781 117.5 77.9168C117.5 56.0556 99.7776 38.3335 77.9163 38.3335C56.0551 38.3335 38.333 56.0556 38.333 77.9168C38.333 99.7781 56.0551 117.5 77.9163 117.5Z" fill="#8A8F8C" style="fill:#8A8F8C;fill:color(display-p3 0.5412 0.5608 0.5490);fill-opacity:1;"/>
<path d="M118.753 121.667C118.003 121.667 117.253 121.375 116.711 120.833L108.961 113.083C107.836 111.958 107.836 110.125 108.961 108.958C110.086 107.833 111.919 107.833 113.086 108.958L120.836 116.708C121.961 117.833 121.961 119.667 120.836 120.833C120.253 121.375 119.503 121.667 118.753 121.667Z" fill="#8A8F8C" style="fill:#8A8F8C;fill:color(display-p3 0.5412 0.5608 0.5490);fill-opacity:1;"/>
</svg>
